<?xml version="1.0" standalone="no"?>
<!DOCTYPE svg PUBLIC "-//W3C//DTD SVG 20010904//EN"
 "http://www.w3.org/TR/2001/REC-SVG-20010904/DTD/svg10.dtd">
<svg version="1.0" xmlns="http://www.w3.org/2000/svg"
 width="600.000000pt" height="500.000000pt" viewBox="0 0 600.000000 500.000000"
 preserveAspectRatio="xMidYMid meet">
<metadata>
Created by potrace 1.16, written by Peter Selinger 2001-2019
</metadata>
<g transform="translate(0.000000,500.000000) scale(0.100000,-0.100000)"
fill="#000000" stroke="none">
<path d="M2978 4419 c-21 -10 -45 -30 -53 -43 l-15 -23 -43 21 c-34 17 -60 21
-142 21 -92 0 -104 -2 -153 -29 -102 -57 -136 -172 -82 -278 25 -51 81 -113
65 -73 -40 100 -44 135 -21 188 46 107 226 156 347 93 40 -20 55 -24 58 -14 2
7 19 28 37 46 24 24 41 32 68 32 69 0 157 -65 172 -126 7 -29 5 -29 49 -3 44
27 92 20 130 -19 25 -24 27 -32 22 -78 l-5 -52 44 -6 c91 -12 164 -70 184
-146 13 -50 5 -85 -27 -110 -50 -39 -107 -22 -281 84 -115 70 -181 103 -249
127 -114 39 -231 33 -303 -16 -19 -13 -80 -35 -135 -49 -436 -111 -838 -335
-1125 -625 -290 -294 -440 -621 -440 -958 0 -292 106 -536 330 -763 127 -129
237 -208 397 -288 l102 -51 -6 -76 c-5 -62 -3 -75 9 -75 25 0 96 57 113 91 21
40 74 63 112 48 91 -34 154 -185 124 -296 -15 -53 -64 -97 -100 -89 -14 3 -51
10 -82 17 -31 7 -68 9 -83 5 l-27 -7 18 -32 c10 -17 43 -57 74 -89 99 -101
212 -112 292 -29 54 54 79 120 84 221 9 160 -42 310 -142 419 -91 98 -204 128
-274 72 -70 -56 -63 -56 -138 -17 -242 121 -469 339 -575 551 -88 175 -119
395 -83 596 16 95 61 235 94 294 26 46 23 35 -14 -54 -48 -114 -76 -246 -80
-371 -4 -107 6 -225 22 -260 3 -8 8 -26 10 -40 2 -14 12 -41 23 -62 10 -20 16
-39 13 -42 -4 -3 0 -6 7 -6 7 0 11 -3 7 -6 -6 -6 23 -64 66 -134 103 -166 325
-363 519 -461 85 -43 85 -35 -1 12 -251 137 -451 335 -556 553 -64 132 -86
225 -92 386 -6 152 9 259 54 383 35 100 107 236 170 324 55 77 62 89 41 77
-25 -15 71 92 149 166 l78 75 -90 -95 c-137 -143 -145 -158 -15 -28 176 176
373 314 613 429 107 50 443 167 453 156 3 -3 2 -18 -3 -33 -8 -25 -22 -32
-124 -64 -141 -46 -243 -87 -358 -145 -94 -47 -261 -143 -261 -150 0 -2 58 25
128 61 127 63 387 156 525 187 78 17 76 20 53 -78 -8 -33 -13 -62 -10 -64 2
-2 34 10 71 27 130 59 213 77 368 76 122 0 148 -3 197 -23 63 -25 108 -69 108
-107 0 -53 -51 -115 -127 -153 -24 -12 -43 -24 -43 -27 0 -11 82 6 131 28 27
11 65 38 84 59 l35 39 0 120 0 120 26 -10 c34 -13 106 -13 141 1 15 5 40 22
55 36 l27 26 93 -18 c593 -114 974 -472 1049 -985 11 -80 8 -251 -6 -295 -5
-16 -4 -17 4 -5 24 38 43 195 38 315 -11 250 -103 451 -292 641 -196 196 -486
340 -818 404 -57 11 -75 26 -64 54 13 32 352 -70 535 -160 68 -34 110 -50 116
-44 9 9 -4 15 -26 11 -5 0 -8 4 -8 10 0 5 -4 7 -10 4 -5 -3 -10 -1 -10 5 0 6
-5 8 -10 5 -6 -3 -13 1 -16 9 -3 9 -15 16 -25 16 -10 0 -19 5 -19 11 0 6 -7 9
-15 5 -8 -3 -15 -1 -15 5 0 6 -4 8 -9 5 -5 -3 -14 1 -21 9 -7 8 -16 13 -20 10
-5 -3 -11 -1 -15 5 -4 6 -11 8 -16 5 -5 -4 -9 -2 -9 3 0 7 -62 32 -95 38 -5 1
-13 3 -17 4 -5 1 -12 4 -18 5 -5 1 -12 4 -15 5 -3 1 -8 3 -12 4 -5 1 -24 7
-43 14 -19 6 -48 14 -65 17 -78 12 -145 29 -145 36 0 11 215 -38 330 -77 389
-130 679 -363 821 -659 72 -151 93 -248 93 -430 0 -291 -77 -548 -233 -782
-64 -95 -206 -263 -223 -263 -5 0 24 36 66 81 181 192 310 448 362 719 31 163
21 460 -18 507 -5 7 -7 17 -3 23 3 5 1 10 -5 10 -6 0 -9 4 -5 9 3 5 1 12 -4
16 -6 3 -8 12 -4 20 3 8 -1 15 -8 15 -7 0 -10 3 -6 6 3 4 0 13 -8 20 -8 8 -11
22 -8 31 4 11 3 14 -5 9 -8 -4 -10 -2 -6 7 3 8 -2 17 -11 21 -9 3 -13 10 -10
16 3 5 1 10 -5 10 -6 0 -8 5 -5 10 3 6 1 10 -5 10 -6 0 -8 5 -4 12 5 7 3 8 -6
3 -10 -6 -12 -4 -7 9 4 10 3 15 -3 11 -6 -4 -9 -2 -8 4 2 5 -6 17 -17 26 -11
9 -13 14 -5 10 8 -4 6 1 -5 10 -11 9 -20 21 -20 28 -1 7 -7 11 -14 9 -8 -2
-11 3 -8 12 4 9 1 15 -6 13 -7 -1 -11 4 -9 11 1 8 -2 11 -9 6 -8 -5 -9 -3 -4
6 6 9 4 11 -5 5 -8 -5 -11 -4 -7 2 8 13 -77 96 -88 86 -4 -5 -5 -2 0 6 5 9 4
12 -3 7 -6 -4 -18 5 -28 19 -9 13 -21 22 -27 18 -6 -4 -7 -1 -2 7 6 9 4 11 -5
5 -9 -5 -11 -4 -6 4 4 6 4 11 -1 10 -20 -3 -34 2 -28 11 4 6 2 9 -4 8 -5 -2
-17 6 -26 17 -9 11 -14 13 -10 5 4 -8 -1 -6 -9 4 -9 11 -16 16 -16 11 0 -5 -7
0 -15 11 -8 10 -15 15 -15 9 0 -5 -4 -4 -9 4 -5 7 -11 9 -14 4 -3 -5 22 -28
56 -50 290 -192 477 -489 506 -801 33 -363 -119 -757 -416 -1073 -53 -57 -79
-88 -58 -69 l40 35 -37 -40 -37 -39 -56 60 -56 59 30 -55 c76 -141 95 -286 52
-387 -13 -28 -33 -60 -45 -72 -17 -16 -188 -62 -726 -195 -388 -96 -797 -197
-909 -225 -112 -28 -206 -50 -208 -48 -2 2 3 20 11 39 75 179 10 438 -139 550
-67 51 -77 48 -25 -8 97 -105 155 -306 130 -453 -7 -41 -26 -101 -44 -137 -18
-35 -31 -64 -29 -64 4 0 404 99 1417 350 292 72 539 138 552 148 12 9 35 40
50 67 35 63 45 192 21 273 l-15 51 98 85 c279 243 472 575 525 898 116 717
-381 1264 -1289 1418 -92 16 -125 25 -147 45 -16 13 -54 32 -83 41 -53 17 -54
18 -59 61 -9 78 -74 126 -170 126 -56 -1 -58 0 -76 36 -23 44 -56 76 -94 90
-45 17 -128 12 -169 -10z m73 -448 c96 -25 169 -57 267 -120 78 -50 80 -52 85
-99 3 -26 4 -48 2 -50 -2 -2 -20 8 -42 22 -116 77 -424 80 -591 6 -25 -11 -46
-19 -48 -18 -8 8 56 212 72 230 46 51 132 61 255 29z"/>
<path d="M2130 3409 c-251 -17 -461 -97 -554 -213 -27 -33 -31 -46 -31 -96 0
-59 15 -89 56 -111 14 -7 16 -1 16 45 0 140 130 257 341 307 114 27 237 24
279 -7 76 -57 5 -171 -183 -294 -78 -51 -100 -60 -92 -37 40 107 89 271 84
282 -7 20 -53 18 -102 -4 -37 -17 -44 -26 -78 -107 -52 -124 -122 -337 -136
-412 -13 -76 -1 -109 50 -134 134 -67 465 61 534 207 16 34 21 91 10 120 -10
24 -63 47 -124 54 l-55 6 62 34 c72 39 181 126 207 166 10 15 21 45 23 66 14
100 -87 142 -307 128z m3 -473 c19 -8 38 -23 42 -35 16 -52 -72 -151 -181
-203 -72 -34 -134 -47 -134 -28 0 7 19 72 41 144 l41 132 78 3 c51 1 91 -3
113 -13z"/>
<path d="M2956 3412 c-3 -3 -6 -13 -6 -22 0 -10 -27 -100 -59 -202 -59 -186
-86 -311 -74 -345 18 -52 63 -71 63 -26 0 32 48 183 58 183 4 0 20 -25 36 -56
50 -95 140 -139 208 -103 19 10 18 12 -19 39 -53 40 -132 147 -133 182 0 22
85 114 156 169 l57 44 -32 9 c-42 12 -64 -4 -166 -126 -44 -53 -81 -95 -83
-93 -1 1 18 57 43 124 55 147 61 174 43 188 -20 17 -86 42 -92 35z"/>
<path d="M3786 3389 c-14 -11 -38 -42 -54 -67 -26 -45 -27 -46 -30 -20 -4 36
-19 46 -72 50 l-45 3 3 -33 c2 -18 -2 -65 -8 -105 -10 -59 -20 -82 -54 -126
-22 -30 -63 -72 -89 -93 -59 -46 -96 -50 -127 -11 -30 38 -23 64 22 79 92 32
173 114 185 188 14 90 -83 102 -194 23 -93 -66 -158 -215 -133 -305 42 -158
211 -104 358 114 12 17 12 16 7 -9 -11 -53 5 -98 39 -112 17 -7 32 -12 33 -11
2 1 14 46 28 100 40 153 101 266 145 266 10 0 28 -12 39 -27 23 -28 23 -28 40
4 27 52 2 113 -46 113 -11 0 -32 -9 -47 -21z"/>
<path d="M4055 3391 c-71 -33 -112 -97 -99 -154 3 -16 30 -56 60 -88 30 -32
54 -64 54 -70 0 -41 -57 -79 -118 -79 -49 0 -88 29 -113 84 l-19 41 0 -43 c0
-130 148 -211 270 -149 117 58 119 180 6 285 -48 45 -56 77 -25 107 26 25 61
33 97 21 16 -5 26 -21 34 -51 10 -36 15 -42 26 -33 18 15 52 83 52 103 0 42
-152 60 -225 26z"/>
<path d="M1938 3321 c-185 -51 -292 -146 -304 -272 l-5 -54 19 52 c36 100 95
155 241 225 82 40 87 41 195 42 61 1 125 -3 141 -7 29 -8 29 -8 12 10 -26 27
-207 30 -299 4z"/>
<path d="M2639 3216 c-102 -36 -205 -156 -250 -288 -63 -189 75 -233 201 -64
l35 48 6 -29 c9 -46 27 -70 59 -81 16 -6 30 -10 31 -9 0 1 3 22 5 47 2 25 17
90 34 145 47 152 47 142 11 162 -17 10 -29 23 -27 30 7 17 -16 41 -44 47 -14
3 -41 0 -61 -8z m59 -73 c6 -42 -119 -247 -166 -272 -29 -15 -46 10 -39 55 10
61 68 172 109 210 46 41 91 44 96 7z"/>
<path d="M1388 2863 c-75 -163 -103 -309 -95 -478 16 -305 183 -577 474 -773
150 -101 177 -109 58 -17 -88 67 -187 171 -258 270 -71 100 -153 275 -183 391
-50 194 -42 438 20 610 14 38 24 70 22 71 -2 2 -19 -32 -38 -74z"/>
<path d="M2344 2873 c-4 -21 -8 -44 -7 -50 0 -7 -4 -10 -10 -6 -7 4 -8 0 -3
-13 4 -10 4 -15 0 -11 -4 3 -33 -18 -66 -48 -32 -30 -90 -69 -128 -88 -38 -19
-67 -37 -62 -42 4 -5 2 -5 -5 -1 -7 4 -50 -1 -97 -11 -84 -17 -138 -14 -201
12 -18 8 -18 7 -6 -8 7 -9 36 -24 65 -32 47 -15 58 -15 133 2 45 9 80 20 78
23 -2 4 9 4 26 2 61 -9 236 104 273 177 14 26 32 131 23 131 -3 0 -8 -17 -13
-37z"/>
<path d="M3560 2860 c0 -32 -56 -268 -96 -405 -39 -134 -73 -193 -159 -274
-68 -65 -111 -68 -140 -10 -39 74 15 262 85 299 15 8 24 6 40 -10 11 -11 17
-26 14 -35 -10 -25 24 -18 42 9 13 22 14 29 2 53 -28 60 -131 32 -212 -58 -62
-69 -95 -141 -103 -222 -6 -63 -8 -70 -49 -107 -24 -22 -48 -40 -53 -40 -30 0
-17 99 37 282 l27 93 63 15 c77 19 81 35 7 27 -49 -5 -55 -4 -51 11 2 9 7 36
11 58 6 39 4 43 -32 73 -46 38 -58 39 -61 4 -1 -16 -14 -63 -28 -105 -24 -73
-27 -78 -62 -88 -20 -5 -45 -10 -55 -10 -11 0 -17 -5 -14 -12 3 -9 20 -12 49
-10 l45 3 -28 -81 c-16 -45 -29 -88 -29 -97 0 -49 -104 -213 -136 -213 -22 0
-17 94 11 206 14 54 25 102 25 107 0 10 -79 46 -100 47 -12 0 -22 -35 -43
-152 -40 -217 -39 -246 14 -273 61 -32 145 20 188 116 l17 38 12 -44 c9 -33
20 -48 42 -60 45 -23 88 -6 148 60 l49 54 22 -29 c61 -84 194 -26 324 140 20
25 26 29 22 14 -3 -12 -1 -33 6 -46 11 -26 66 -64 76 -54 4 3 16 45 29 93 37
146 61 199 119 261 29 31 57 53 61 49 5 -4 -2 -47 -14 -95 -28 -109 -29 -171
-2 -205 42 -53 102 -41 161 35 18 24 35 45 37 48 3 3 7 -1 9 -8 12 -32 57 -72
88 -78 62 -11 168 58 243 161 l22 30 -6 -27 c-3 -14 0 -37 7 -50 7 -12 12 -26
11 -30 -3 -10 58 -58 74 -58 7 0 16 12 20 28 30 137 94 278 146 324 30 26 39
41 32 48 -12 12 -75 -26 -82 -50 -3 -8 9 -2 27 14 42 40 40 24 -4 -19 -21 -21
-32 -28 -29 -18 3 10 -2 6 -11 -10 -9 -15 -13 -33 -9 -39 4 -6 3 -8 -3 -5 -5
3 -23 -37 -41 -91 -43 -136 -46 -146 -44 -154 2 -9 -57 12 -64 23 -3 5 8 6 23
3 27 -5 29 -3 45 58 46 176 121 308 175 308 42 0 42 -21 1 -130 -48 -124 -56
-213 -24 -249 35 -38 79 -24 126 41 40 55 40 81 1 44 -20 -19 -36 -26 -47 -22
-24 9 -15 58 35 191 55 145 59 172 31 208 -37 47 -73 36 -163 -52 l-58 -56 7
42 c6 40 5 43 -22 54 -50 18 -88 24 -80 10 4 -6 -7 -70 -25 -141 -29 -114 -38
-137 -76 -185 -102 -130 -198 -151 -219 -49 -5 29 -3 32 38 47 63 25 122 70
157 124 59 89 32 176 -51 159 -131 -26 -242 -161 -258 -314 -6 -58 -10 -68
-40 -94 -69 -57 -78 -36 -49 103 33 158 33 158 14 179 -10 11 -29 20 -42 20
-32 0 -92 -32 -122 -64 -34 -36 -42 -32 -27 12 26 74 68 262 62 277 -6 16 -41
32 -88 42 -24 5 -28 2 -28 -17z"/>
<path d="M2565 2641 c-65 -30 -186 -167 -300 -339 -26 -40 -50 -71 -52 -69 -2
2 11 66 29 142 l32 138 -39 34 -40 35 -105 -5 c-78 -3 -125 -11 -180 -31 -103
-35 -127 -70 -100 -142 l10 -26 23 33 c12 19 47 48 76 66 55 33 179 67 224 61
l25 -3 -30 -75 c-45 -115 -135 -419 -158 -537 -23 -114 -22 -149 10 -192 11
-16 17 -31 14 -33 -8 -9 56 -58 74 -58 14 0 28 42 70 205 30 112 52 210 49
217 -4 10 -6 9 -10 -2 -16 -41 -99 -368 -99 -387 0 -13 -5 -23 -10 -23 -5 0
-6 5 -3 10 3 6 -4 10 -18 10 -14 0 -31 8 -38 17 -12 15 -12 16 6 9 32 -12 36
-12 46 4 4 8 32 106 60 217 29 111 55 200 59 198 4 -2 17 -30 28 -62 12 -32
40 -82 62 -111 42 -55 48 -68 28 -56 -37 20 75 -84 124 -116 87 -57 160 -74
313 -74 199 0 308 29 578 156 287 135 439 176 687 185 169 6 280 -4 407 -39
112 -30 151 -34 159 -15 10 27 -5 38 -30 22 -21 -14 -29 -13 -90 5 -98 31
-206 50 -321 57 -111 6 -298 -4 -290 -17 3 -4 -4 -6 -14 -3 -34 9 -255 -43
-246 -58 3 -4 0 -11 -6 -15 -8 -4 -9 -3 -5 4 4 7 1 12 -9 12 -9 0 -14 -4 -11
-9 4 -5 -4 -7 -16 -3 -14 3 -19 1 -14 -6 3 -6 1 -14 -5 -18 -8 -4 -9 -3 -5 4
4 7 1 12 -9 12 -10 0 -13 -5 -9 -12 4 -7 3 -8 -5 -4 -18 12 -160 -54 -154 -70
3 -8 0 -14 -7 -14 -6 0 -8 5 -4 12 5 7 2 9 -7 5 -126 -54 -226 -103 -223 -108
2 -4 -6 -5 -18 -1 -16 4 -19 2 -13 -8 5 -8 4 -11 -3 -6 -5 3 -48 -3 -94 -15
-49 -12 -133 -22 -208 -26 -145 -6 -228 9 -320 58 -55 29 -125 89 -104 89 6 0
20 -11 33 -24 30 -32 113 -72 191 -92 51 -13 94 -15 205 -11 199 8 267 28 570
170 225 105 366 146 585 168 171 17 347 1 517 -48 77 -22 94 -24 108 -13 14
12 13 16 -10 40 -36 37 -147 87 -237 106 -41 9 -121 16 -183 16 -183 -1 -367
-47 -720 -184 -249 -96 -378 -129 -535 -135 -143 -6 -207 4 -299 47 -81 39
-157 117 -206 212 l-39 75 69 99 c105 153 259 324 293 324 24 0 12 18 -19 29
-42 14 -47 14 -94 -8z"/>
<path d="M2603 2538 c-147 -142 -301 -368 -252 -368 6 0 8 7 5 15 -5 15 82
160 91 151 2 -2 -17 -34 -43 -70 -25 -37 -44 -69 -42 -72 3 -2 18 15 33 38 94
142 278 348 312 348 13 0 13 3 3 15 -7 8 -17 15 -22 15 -6 0 -44 -33 -85 -72z"/>
<path d="M3980 1762 c-26 -26 -29 -27 -33 -10 -3 10 -14 18 -26 18 -20 0 -21
-5 -21 -79 0 -55 4 -82 14 -90 12 -10 16 -3 25 40 11 52 45 119 61 119 4 0 5
-20 3 -44 -6 -49 9 -86 35 -86 14 0 17 11 17 68 0 99 -21 117 -75 64z"/>
<path d="M3752 1715 c-36 -31 -54 -72 -50 -116 2 -28 7 -35 29 -37 19 -2 33 4
48 24 20 25 22 26 39 10 22 -19 43 -21 37 -3 -3 7 -1 35 4 62 9 46 8 52 -12
67 -31 24 -61 22 -95 -7z"/>
<path d="M4666 1689 c-17 -4 -56 -22 -87 -39 -31 -16 -64 -30 -73 -30 -19 0
-19 -4 -5 -71 l11 -52 94 6 c51 4 108 13 127 20 36 15 77 60 77 84 0 30 -31
71 -61 82 -36 13 -43 13 -83 0z"/>
<path d="M3510 1648 c0 -13 -10 -43 -22 -68 l-21 -45 -7 45 c-7 54 -16 70 -38
70 -15 0 -17 -9 -14 -67 5 -100 32 -121 75 -58 l23 34 20 -22 19 -22 6 70 c7
79 6 85 -22 85 -13 0 -19 -7 -19 -22z"/>
<path d="M3276 1609 c-50 -40 -74 -120 -46 -154 18 -21 27 -19 62 16 27 26 33
28 40 15 11 -19 50 -22 43 -3 -3 7 -1 34 4 61 8 44 7 51 -12 67 -29 24 -59 24
-91 -2z"/>
<path d="M2659 1568 l-35 -9 -12 -83 c-17 -119 -16 -153 7 -166 29 -15 30 -14
37 40 7 53 14 60 35 33 25 -30 98 -55 137 -48 l36 7 -42 18 c-43 19 -102 60
-102 69 0 3 19 17 41 31 50 31 74 72 59 100 -9 17 -20 20 -68 19 -31 -1 -73
-5 -93 -11z"/>
<path d="M4229 1498 c-15 -67 -42 -96 -32 -34 7 42 -9 66 -44 66 -20 0 -22 -3
-13 -19 5 -11 10 -42 10 -70 0 -27 5 -53 10 -56 18 -11 50 5 65 33 l14 27 1
-41 c0 -50 -26 -79 -65 -72 -16 4 -24 1 -22 -6 6 -19 51 -17 84 3 43 27 58 78
48 165 -5 53 -10 66 -24 66 -13 0 -21 -15 -32 -62z"/>
<path d="M2859 1509 c-31 -33 -39 -91 -19 -130 16 -29 74 -26 107 7 14 14 22
28 18 32 -3 4 -11 -1 -16 -11 -14 -23 -56 -22 -69 3 -9 17 -8 20 8 20 46 0 95
73 69 99 -22 22 -68 12 -98 -20z"/>
<path d="M3705 1418 c-9 -115 -4 -162 18 -166 14 -3 17 4 17 37 0 23 3 41 6
41 3 0 17 -9 31 -20 27 -21 83 -28 83 -10 0 6 -4 10 -8 10 -4 0 -23 13 -42 29
l-34 28 31 32 c21 21 26 31 16 31 -8 0 -28 -14 -44 -31 -31 -33 -33 -29 -20
39 7 36 6 44 -10 52 -33 18 -37 11 -44 -72z"/>
<path d="M3914 1480 c-59 -24 -85 -119 -44 -160 11 -11 27 -20 35 -20 25 0 72
27 79 45 11 28 7 29 -19 5 -20 -19 -30 -22 -42 -14 -28 17 -25 29 10 46 20 10
39 29 47 48 12 29 12 34 -5 46 -21 16 -31 16 -61 4z"/>
<path d="M3316 1413 c-33 -10 -45 -17 -37 -23 11 -6 11 -21 2 -72 -17 -101
-15 -155 8 -168 49 -26 153 8 195 63 25 34 14 57 -31 71 l-31 9 34 32 c39 37
45 78 15 95 -27 14 -97 11 -155 -7z"/>
<path d="M3590 1382 c-37 -18 -80 -87 -80 -128 0 -23 24 -54 42 -54 5 0 23 14
39 31 26 28 30 29 45 15 30 -30 39 -19 39 48 0 55 -4 67 -24 85 -13 12 -24 21
-25 21 -1 0 -17 -8 -36 -18z"/>
<path d="M2987 1320 c-30 -24 -34 -47 -14 -74 11 -16 9 -22 -20 -51 -38 -38
-42 -66 -12 -96 29 -29 82 -20 124 21 l32 31 30 -25 c46 -39 63 -3 21 42 -23
23 -23 24 -3 38 11 8 25 12 32 10 7 -3 13 -1 13 5 0 20 -32 21 -59 2 -27 -21
-27 -21 -54 -1 l-27 19 22 30 c17 23 20 34 12 47 -16 26 -66 27 -97 2z"/>
<path d="M2021 1181 c-76 -77 -146 -100 -337 -110 -120 -6 -148 -11 -189 -32
-62 -30 -88 -65 -88 -118 0 -79 61 -131 154 -131 66 0 107 13 251 81 122 58
185 69 279 49 60 -13 61 -13 86 13 56 56 38 194 -33 257 -47 41 -76 39 -123
-9z"/>
</g>
</svg>
